<svg xmlns="http://www.w3.org/2000/svg" width="159.575" height="34.334" viewBox="0 0 159.575 34.334"><defs><style>.a,.b{fill:#4f7abd;}.a{fill-rule:evenodd;}.c{fill:#0068e1;}.d{fill:#000001;}</style></defs><g transform="translate(-317.26 -457.12)"><path class="a" d="M951.159,457.12l15.26,34.334h-7.63L943.53,457.12Z" transform="translate(-572.122 0)"/><path class="b" d="M943.53,457.12l15.258,34.333h7.631L951.16,457.12Z" transform="translate(-572.122 0)"/><path class="c" d="M943.53,457.12l15.258,34.333h7.631L951.16,457.12Z" transform="translate(-572.122 0)"/><path class="d" d="M317.26,457.12v7.629H328.7v26.7h7.629v-26.7h11.446V457.12Zm41.965,0-15.261,34.333h7.629l11.444-24.8,11.444,24.8h7.629L366.854,457.12Z" transform="translate(0 0)"/><path class="d" d="M1318.28,709.336v-2.864h5.012a3.8,3.8,0,0,0,1.4-.277,3.4,3.4,0,0,0,1.135-.77,3.526,3.526,0,0,0,.769-1.137,3.378,3.378,0,0,0,.279-1.4,3.731,3.731,0,0,0-.279-1.395,3.39,3.39,0,0,0-.769-1.137,3.5,3.5,0,0,0-1.135-.77,3.36,3.36,0,0,0-1.4-.277h-5.012V696.45h5.012a6.356,6.356,0,0,1,2.505.51,6.131,6.131,0,0,1,1.091.591,6.789,6.789,0,0,1,.958.787,6.412,6.412,0,0,1,.788.957,6.491,6.491,0,0,1,.589,1.094,6.408,6.408,0,0,1,0,5.01,6.111,6.111,0,0,1-.589,1.092,6.654,6.654,0,0,1-.788.957,6.191,6.191,0,0,1-.958.787,6.475,6.475,0,0,1-1.091.591,6.377,6.377,0,0,1-2.505.51h-5.012Z" transform="translate(-914.47 -218.637)"/><path class="d" d="M1761.427,709.318V699.3h-4.3V696.43h11.454V699.3h-4.3v10.022Z" transform="translate(-1315.377 -218.619)"/><path class="d" d="M1873.06,709.318l5.728-12.888h2.864l5.728,12.888h-2.865l-4.3-9.308-4.293,9.308Z" transform="translate(-1421.284 -218.619)"/><rect class="d" width="2.864" height="12.888" transform="translate(417.413 477.812)"/><rect class="d" width="2.864" height="12.888" transform="translate(436.742 477.812)"/><path class="d" d="M2055.22,709.318V696.43h2.865v10.024h6.444v2.864Z" transform="translate(-1587.694 -218.619)"/><path class="d" d="M1537.714,705.385a7.177,7.177,0,0,1-1.154-.627,6.35,6.35,0,0,1-1-.833,6.835,6.835,0,0,1-.832-1,7.126,7.126,0,0,1-.626-1.154,6.8,6.8,0,0,1,0-5.3,7.142,7.142,0,0,1,.626-1.155,6.54,6.54,0,0,1,.832-1,7,7,0,0,1,1-.833,7.2,7.2,0,0,1,1.154-.625,6.8,6.8,0,0,1,5.3,0,7.172,7.172,0,0,1,1.154.625,6.32,6.32,0,0,1,.824.654l-2.013,2.012a3.963,3.963,0,0,0-4.154-.671,3.871,3.871,0,0,0-1.261.851,3.951,3.951,0,0,0-.851,4.34,3.876,3.876,0,0,0,.851,1.261,3.945,3.945,0,0,0,4.339.851,3.734,3.734,0,0,0,.967-.582V699.12h2.864V703.3a5.4,5.4,0,0,1-.564.637,6.976,6.976,0,0,1-1,.832,7.184,7.184,0,0,1-1.154.625,6.742,6.742,0,0,1-2.65.538,6.911,6.911,0,0,1-2.647-.545" transform="translate(-1111.137 -214.865)"/></g></svg>